<svg width="40" height="40" viewBox="0 0 40 40" fill="none" xmlns="http://www.w3.org/2000/svg">
<path d="M16.5667 3C17.745 3 18.4167 4.17333 18.4167 5.35167V12.5733H16.925C16.6349 11.8562 16.1044 11.2623 15.4245 10.8934C14.7446 10.5245 13.9575 10.4036 13.1982 10.5514C12.4389 10.6991 11.7546 11.1064 11.2626 11.7033C10.7706 12.3003 10.5016 13.0498 10.5016 13.8233C10.5016 14.5969 10.7706 15.3464 11.2626 15.9433C11.7546 16.5403 12.4389 16.9475 13.1982 17.0953C13.9575 17.2431 14.7446 17.1221 15.4245 16.7532C16.1044 16.3843 16.6349 15.7904 16.925 15.0733H18.4167V33.2367C18.4167 34.23 17.9967 35.2183 17.1117 35.67C16.3092 36.0903 15.4176 36.3121 14.5117 36.3167C11.995 36.3167 10.1233 35.0433 8.91833 33.5367C8.0838 32.4969 7.50188 31.2777 7.21833 29.975C6.44003 29.7453 5.7192 29.3534 5.10333 28.825C3.92 27.8067 3 26.1733 3 23.7667C3 22.5083 3.09 21.4117 3.31667 20.49H10.3333C11.4633 20.49 12.4 21.3233 12.5583 22.4083C11.844 22.7038 11.2546 23.2384 10.891 23.9206C10.5274 24.6028 10.4122 25.3901 10.5651 26.1478C10.718 26.9056 11.1296 27.5866 11.7292 28.0744C12.3289 28.5622 13.0795 28.8264 13.8525 28.8218C14.6255 28.8171 15.3729 28.544 15.9667 28.0491C16.5605 27.5542 16.9639 26.8683 17.1077 26.1088C17.2516 25.3492 17.127 24.5633 16.7552 23.8856C16.3835 23.2078 15.7878 22.6803 15.07 22.3933C14.9824 21.1969 14.4454 20.0779 13.5668 19.2611C12.6881 18.4443 11.533 17.9902 10.3333 17.99H4.73333C4.98291 17.7837 5.26073 17.6142 5.55833 17.4867C5.38653 16.8743 5.28697 16.2439 5.26167 15.6083C5.20667 14.3833 5.39 13.1083 5.75333 11.9733C6.11333 10.8567 6.68333 9.76833 7.48333 9.01667C7.98517 8.52767 8.62094 8.19876 9.31 8.07167C9.64167 6.67167 10.4867 5.515 11.565 4.67667C12.95 3.59667 14.765 3 16.565 3H16.5667ZM20.9167 27.99H23.6667C24.9264 27.99 26.1346 27.4896 27.0254 26.5988C27.9162 25.708 28.4167 24.4998 28.4167 23.24V20.2483C29.1338 19.9582 29.7277 19.4278 30.0966 18.7478C30.4655 18.0679 30.5864 17.2808 30.4386 16.5215C30.2909 15.7622 29.8836 15.0779 29.2867 14.5859C28.6897 14.094 27.9402 13.8249 27.1667 13.8249C26.3931 13.8249 25.6436 14.094 25.0467 14.5859C24.4497 15.0779 24.0425 15.7622 23.8947 16.5215C23.7469 17.2808 23.8679 18.0679 24.2368 18.7478C24.6057 19.4278 25.1996 19.9582 25.9167 20.2483V23.24C25.9167 23.8367 25.6796 24.409 25.2577 24.831C24.8357 25.2529 24.2634 25.49 23.6667 25.49H20.9167V5.35167C20.9167 4.17333 21.5883 3 22.7667 3C24.57 3 26.3833 3.59667 27.7683 4.67667C28.8467 5.515 29.6917 6.67333 30.0233 8.07167C30.7233 8.18833 31.3467 8.545 31.85 9.01667C32.65 9.76833 33.22 10.855 33.58 11.9733C33.9433 13.1083 34.1267 14.3833 34.0717 15.6083C34.0433 16.235 33.9517 16.875 33.775 17.4867L33.885 17.5367C34.5017 17.8267 35.0017 18.2817 35.375 18.8867C36.0833 20.0283 36.3333 21.6717 36.3333 23.7667C36.3333 26.175 35.4133 27.81 34.23 28.825C33.6136 29.3536 32.8922 29.7456 32.1133 29.975C31.8302 31.2776 31.2489 32.4967 30.415 33.5367C29.21 35.0433 27.3383 36.3167 24.82 36.3167C23.9142 36.3126 23.0226 36.0914 22.22 35.6717C21.3367 35.2183 20.9167 34.23 20.9167 33.2367V27.99ZM13 13.8233C13 13.6023 13.0878 13.3904 13.2441 13.2341C13.4004 13.0778 13.6123 12.99 13.8333 12.99C14.0543 12.99 14.2663 13.0778 14.4226 13.2341C14.5789 13.3904 14.6667 13.6023 14.6667 13.8233C14.6667 14.0443 14.5789 14.2563 14.4226 14.4126C14.2663 14.5689 14.0543 14.6567 13.8333 14.6567C13.6123 14.6567 13.4004 14.5689 13.2441 14.4126C13.0878 14.2563 13 14.0443 13 13.8233ZM13.8333 24.6567C13.6123 24.6567 13.4004 24.7445 13.2441 24.9007C13.0878 25.057 13 25.269 13 25.49C13 25.711 13.0878 25.923 13.2441 26.0793C13.4004 26.2355 13.6123 26.3233 13.8333 26.3233C14.0543 26.3233 14.2663 26.2355 14.4226 26.0793C14.5789 25.923 14.6667 25.711 14.6667 25.49C14.6667 25.269 14.5789 25.057 14.4226 24.9007C14.2663 24.7445 14.0543 24.6567 13.8333 24.6567ZM26.3333 17.1567C26.3333 17.3777 26.4211 17.5896 26.5774 17.7459C26.7337 17.9022 26.9457 17.99 27.1667 17.99C27.3877 17.99 27.5996 17.9022 27.7559 17.7459C27.9122 17.5896 28 17.3777 28 17.1567C28 16.9357 27.9122 16.7237 27.7559 16.5674C27.5996 16.4111 27.3877 16.3233 27.1667 16.3233C26.9457 16.3233 26.7337 16.4111 26.5774 16.5674C26.4211 16.7237 26.3333 16.9357 26.3333 17.1567Z" fill="#181818"/>
</svg>
