<svg width="202" height="40" viewBox="0 0 202 40" fill="none" xmlns="http://www.w3.org/2000/svg">
<path d="M52.808 27.811H49.448V14.518H52.808V19.6H57.848V14.518H61.208V27.811H57.848V22.33H52.808V27.811ZM62.9864 22.771C62.9864 20.895 63.3854 19.544 64.1834 18.718C64.9814 17.892 66.3324 17.479 68.2364 17.479C69.5104 17.479 70.5324 17.661 71.3024 18.025C72.0724 18.389 72.6254 18.963 72.9614 19.747C73.3114 20.517 73.4864 21.525 73.4864 22.771C73.4864 24.003 73.3114 25.004 72.9614 25.774C72.6254 26.544 72.0724 27.111 71.3024 27.475C70.5324 27.825 69.5104 28 68.2364 28C66.3324 28 64.9814 27.594 64.1834 26.782C63.3854 25.956 62.9864 24.619 62.9864 22.771ZM68.2364 25.123C69.0484 25.123 69.5944 24.948 69.8744 24.598C70.1684 24.234 70.3154 23.604 70.3154 22.708C70.3154 21.854 70.1684 21.245 69.8744 20.881C69.5944 20.503 69.0484 20.314 68.2364 20.314C67.4524 20.314 66.9064 20.503 66.5984 20.881C66.3044 21.245 66.1574 21.854 66.1574 22.708C66.1574 23.604 66.3044 24.234 66.5984 24.598C66.9064 24.948 67.4524 25.123 68.2364 25.123ZM75.4773 24.745V20.335H74.2173V17.605H75.7923L76.4223 15.106H78.8373V17.605H81.1263V20.335H78.8373V24.01C78.8373 24.402 78.8863 24.675 78.9843 24.829C79.0823 24.969 79.3063 25.039 79.6563 25.039C79.8803 25.039 80.1183 25.032 80.3703 25.018C80.6223 24.99 80.8743 24.962 81.1263 24.934L81.1893 24.976V27.706C80.5173 27.902 79.6283 28 78.5223 28C77.4163 28 76.6323 27.748 76.1703 27.244C75.7083 26.74 75.4773 25.907 75.4773 24.745ZM97.9867 14.518H101.347V27.811H98.0077L94.2277 22.183C93.9337 21.735 93.6887 21.357 93.4927 21.049C93.2967 20.741 93.1147 20.433 92.9467 20.125C92.7787 19.817 92.5897 19.453 92.3797 19.033L92.3167 19.117C92.5127 19.789 92.6317 20.419 92.6737 21.007C92.7157 21.581 92.7367 22.141 92.7367 22.687V27.811H89.3767V14.518H92.7157L96.4957 20.146C96.7897 20.58 97.0347 20.958 97.2307 21.28C97.4267 21.588 97.6087 21.896 97.7767 22.204C97.9447 22.512 98.1337 22.876 98.3437 23.296L98.4067 23.212C98.2667 22.624 98.1617 22.057 98.0917 21.511C98.0217 20.951 97.9867 20.398 97.9867 19.852V14.518ZM112.885 27.475C112.493 27.615 111.947 27.741 111.247 27.853C110.561 27.951 109.742 28 108.79 28C107.586 28 106.557 27.846 105.703 27.538C104.863 27.216 104.226 26.677 103.792 25.921C103.358 25.151 103.141 24.087 103.141 22.729C103.141 20.881 103.561 19.544 104.401 18.718C105.255 17.892 106.571 17.479 108.349 17.479C109.623 17.479 110.624 17.661 111.352 18.025C112.094 18.389 112.619 18.907 112.927 19.579C113.249 20.237 113.41 21.021 113.41 21.931C113.41 22.197 113.396 22.484 113.368 22.792C113.354 23.1 113.319 23.401 113.263 23.695L113.179 23.779H106.27C106.368 24.395 106.655 24.801 107.131 24.997C107.621 25.193 108.412 25.291 109.504 25.291C110.232 25.291 110.834 25.277 111.31 25.249C111.8 25.207 112.297 25.151 112.801 25.081L112.885 25.144V27.475ZM110.491 21.574C110.491 21.238 110.435 20.951 110.323 20.713C110.225 20.461 110.022 20.272 109.714 20.146C109.406 20.006 108.951 19.936 108.349 19.936C107.467 19.936 106.886 20.09 106.606 20.398C106.34 20.692 106.207 21.084 106.207 21.574H110.491ZM118.556 27.811H115.196V17.584H117.926L118.199 19.684H118.262C118.388 18.9 118.689 18.34 119.165 18.004C119.641 17.654 120.348 17.479 121.286 17.479C121.664 17.479 122.007 17.5 122.315 17.542C122.623 17.57 122.882 17.598 123.092 17.626V20.902L123.05 20.944C122.826 20.888 122.567 20.839 122.273 20.797C121.993 20.755 121.671 20.734 121.307 20.734C120.789 20.734 120.32 20.818 119.9 20.986C119.494 21.154 119.172 21.483 118.934 21.973C118.71 22.449 118.598 23.163 118.598 24.115L118.556 27.811ZM130.952 27.811L130.826 26.32H130.742C130.504 26.88 130.161 27.3 129.713 27.58C129.279 27.86 128.642 28 127.802 28C126.444 28 125.45 27.608 124.82 26.824C124.19 26.026 123.861 24.829 123.833 23.233C123.819 21.805 123.966 20.671 124.274 19.831C124.582 18.991 125.065 18.389 125.723 18.025C126.381 17.661 127.221 17.479 128.243 17.479C128.775 17.479 129.258 17.528 129.692 17.626C130.126 17.71 130.476 17.829 130.742 17.983L130.784 17.962V13.678H134.144V27.811H130.952ZM128.894 25.144C129.454 25.144 129.909 24.969 130.259 24.619C130.609 24.269 130.784 23.688 130.784 22.876V20.671C130.266 20.461 129.657 20.356 128.957 20.356C128.299 20.356 127.823 20.517 127.529 20.839C127.249 21.147 127.109 21.777 127.109 22.729C127.109 23.541 127.221 24.15 127.445 24.556C127.683 24.948 128.166 25.144 128.894 25.144ZM146.324 27.811H142.964V14.518H146.324V19.6H151.364V14.518H154.724V27.811H151.364V22.33H146.324V27.811ZM166.246 27.475C165.854 27.615 165.308 27.741 164.608 27.853C163.922 27.951 163.103 28 162.151 28C160.947 28 159.918 27.846 159.064 27.538C158.224 27.216 157.587 26.677 157.153 25.921C156.719 25.151 156.502 24.087 156.502 22.729C156.502 20.881 156.922 19.544 157.762 18.718C158.616 17.892 159.932 17.479 161.71 17.479C162.984 17.479 163.985 17.661 164.713 18.025C165.455 18.389 165.98 18.907 166.288 19.579C166.61 20.237 166.771 21.021 166.771 21.931C166.771 22.197 166.757 22.484 166.729 22.792C166.715 23.1 166.68 23.401 166.624 23.695L166.54 23.779H159.631C159.729 24.395 160.016 24.801 160.492 24.997C160.982 25.193 161.773 25.291 162.865 25.291C163.593 25.291 164.195 25.277 164.671 25.249C165.161 25.207 165.658 25.151 166.162 25.081L166.246 25.144V27.475ZM163.852 21.574C163.852 21.238 163.796 20.951 163.684 20.713C163.586 20.461 163.383 20.272 163.075 20.146C162.767 20.006 162.312 19.936 161.71 19.936C160.828 19.936 160.247 20.09 159.967 20.398C159.701 20.692 159.568 21.084 159.568 21.574H163.852ZM172.442 17.479C173.786 17.479 174.871 17.619 175.697 17.899C176.523 18.179 177.125 18.697 177.503 19.453C177.895 20.195 178.091 21.273 178.091 22.687V27.811H175.046L174.941 26.845H174.878C174.612 27.195 174.199 27.475 173.639 27.685C173.079 27.895 172.351 28 171.455 28C169.033 28 167.822 26.866 167.822 24.598C167.822 23.632 168.137 22.876 168.767 22.33C169.411 21.77 170.419 21.49 171.791 21.49H174.899C174.801 20.902 174.549 20.51 174.143 20.314C173.737 20.104 173.044 19.999 172.064 19.999C171.448 19.999 170.839 20.048 170.237 20.146C169.649 20.23 169.131 20.328 168.683 20.44L168.62 20.398L168.641 17.962C168.921 17.878 169.278 17.801 169.712 17.731C170.146 17.647 170.601 17.584 171.077 17.542C171.567 17.5 172.022 17.479 172.442 17.479ZM172.316 25.522C173.184 25.522 173.835 25.417 174.269 25.207C174.703 24.983 174.927 24.633 174.941 24.157V23.632H172.568C171.952 23.632 171.518 23.723 171.266 23.905C171.028 24.073 170.909 24.304 170.909 24.598C170.909 24.948 171.035 25.193 171.287 25.333C171.539 25.459 171.882 25.522 172.316 25.522ZM186.672 27.811L186.546 26.32H186.462C186.224 26.88 185.881 27.3 185.433 27.58C184.999 27.86 184.362 28 183.522 28C182.164 28 181.17 27.608 180.54 26.824C179.91 26.026 179.581 24.829 179.553 23.233C179.539 21.805 179.686 20.671 179.994 19.831C180.302 18.991 180.785 18.389 181.443 18.025C182.101 17.661 182.941 17.479 183.963 17.479C184.495 17.479 184.978 17.528 185.412 17.626C185.846 17.71 186.196 17.829 186.462 17.983L186.504 17.962V13.678H189.864V27.811H186.672ZM184.614 25.144C185.174 25.144 185.629 24.969 185.979 24.619C186.329 24.269 186.504 23.688 186.504 22.876V20.671C185.986 20.461 185.377 20.356 184.677 20.356C184.019 20.356 183.543 20.517 183.249 20.839C182.969 21.147 182.829 21.777 182.829 22.729C182.829 23.541 182.941 24.15 183.165 24.556C183.403 24.948 183.886 25.144 184.614 25.144ZM191.925 24.913C193.017 25.221 194.228 25.375 195.558 25.375C196.202 25.375 196.685 25.354 197.007 25.312C197.329 25.27 197.546 25.2 197.658 25.102C197.77 25.004 197.826 24.871 197.826 24.703C197.826 24.465 197.735 24.318 197.553 24.262C197.385 24.206 197.042 24.129 196.524 24.031L194.865 23.716C193.801 23.506 193.031 23.177 192.555 22.729C192.093 22.267 191.862 21.581 191.862 20.671C191.862 19.439 192.226 18.599 192.954 18.151C193.696 17.703 194.872 17.479 196.482 17.479C197.448 17.479 198.295 17.535 199.023 17.647C199.765 17.745 200.381 17.871 200.871 18.025L200.829 20.566L200.766 20.629C199.632 20.265 198.393 20.083 197.049 20.083C196.391 20.083 195.929 20.132 195.663 20.23C195.411 20.314 195.285 20.489 195.285 20.755C195.285 20.895 195.32 21.007 195.39 21.091C195.474 21.175 195.656 21.259 195.936 21.343C196.216 21.413 196.657 21.504 197.259 21.616L198.792 21.91C199.646 22.092 200.276 22.393 200.682 22.813C201.088 23.233 201.291 23.898 201.291 24.808C201.291 25.606 201.144 26.243 200.85 26.719C200.556 27.181 200.059 27.51 199.359 27.706C198.673 27.902 197.721 28 196.503 28C195.579 28 194.725 27.958 193.941 27.874C193.171 27.776 192.478 27.664 191.862 27.538V24.955L191.925 24.913Z" fill="#181818"/>
<path d="M16.5667 3C17.745 3 18.4167 4.17333 18.4167 5.35167V12.5733H16.925C16.6349 11.8562 16.1044 11.2623 15.4245 10.8934C14.7446 10.5245 13.9575 10.4036 13.1982 10.5514C12.4389 10.6991 11.7546 11.1064 11.2626 11.7033C10.7706 12.3003 10.5016 13.0498 10.5016 13.8233C10.5016 14.5969 10.7706 15.3464 11.2626 15.9433C11.7546 16.5403 12.4389 16.9475 13.1982 17.0953C13.9575 17.2431 14.7446 17.1221 15.4245 16.7532C16.1044 16.3843 16.6349 15.7904 16.925 15.0733H18.4167V33.2367C18.4167 34.23 17.9967 35.2183 17.1117 35.67C16.3092 36.0903 15.4176 36.3121 14.5117 36.3167C11.995 36.3167 10.1233 35.0433 8.91833 33.5367C8.0838 32.4969 7.50188 31.2777 7.21833 29.975C6.44003 29.7453 5.7192 29.3534 5.10333 28.825C3.92 27.8067 3 26.1733 3 23.7667C3 22.5083 3.09 21.4117 3.31667 20.49H10.3333C11.4633 20.49 12.4 21.3233 12.5583 22.4083C11.844 22.7038 11.2546 23.2384 10.891 23.9206C10.5274 24.6028 10.4122 25.3901 10.5651 26.1478C10.718 26.9056 11.1296 27.5866 11.7292 28.0744C12.3289 28.5622 13.0795 28.8264 13.8525 28.8218C14.6255 28.8171 15.3729 28.544 15.9667 28.0491C16.5605 27.5542 16.9639 26.8683 17.1077 26.1088C17.2516 25.3492 17.127 24.5633 16.7552 23.8856C16.3835 23.2078 15.7878 22.6803 15.07 22.3933C14.9824 21.1969 14.4454 20.0779 13.5668 19.2611C12.6881 18.4443 11.533 17.9902 10.3333 17.99H4.73333C4.98291 17.7837 5.26073 17.6142 5.55833 17.4867C5.38653 16.8743 5.28697 16.2439 5.26167 15.6083C5.20667 14.3833 5.39 13.1083 5.75333 11.9733C6.11333 10.8567 6.68333 9.76833 7.48333 9.01667C7.98517 8.52767 8.62094 8.19876 9.31 8.07167C9.64167 6.67167 10.4867 5.515 11.565 4.67667C12.95 3.59667 14.765 3 16.565 3H16.5667ZM20.9167 27.99H23.6667C24.9264 27.99 26.1346 27.4896 27.0254 26.5988C27.9162 25.708 28.4167 24.4998 28.4167 23.24V20.2483C29.1338 19.9582 29.7277 19.4278 30.0966 18.7478C30.4655 18.0679 30.5864 17.2808 30.4386 16.5215C30.2909 15.7622 29.8836 15.0779 29.2867 14.5859C28.6897 14.094 27.9402 13.8249 27.1667 13.8249C26.3931 13.8249 25.6436 14.094 25.0467 14.5859C24.4497 15.0779 24.0425 15.7622 23.8947 16.5215C23.7469 17.2808 23.8679 18.0679 24.2368 18.7478C24.6057 19.4278 25.1996 19.9582 25.9167 20.2483V23.24C25.9167 23.8367 25.6796 24.409 25.2577 24.831C24.8357 25.2529 24.2634 25.49 23.6667 25.49H20.9167V5.35167C20.9167 4.17333 21.5883 3 22.7667 3C24.57 3 26.3833 3.59667 27.7683 4.67667C28.8467 5.515 29.6917 6.67333 30.0233 8.07167C30.7233 8.18833 31.3467 8.545 31.85 9.01667C32.65 9.76833 33.22 10.855 33.58 11.9733C33.9433 13.1083 34.1267 14.3833 34.0717 15.6083C34.0433 16.235 33.9517 16.875 33.775 17.4867L33.885 17.5367C34.5017 17.8267 35.0017 18.2817 35.375 18.8867C36.0833 20.0283 36.3333 21.6717 36.3333 23.7667C36.3333 26.175 35.4133 27.81 34.23 28.825C33.6136 29.3536 32.8922 29.7456 32.1133 29.975C31.8302 31.2776 31.2489 32.4967 30.415 33.5367C29.21 35.0433 27.3383 36.3167 24.82 36.3167C23.9142 36.3126 23.0226 36.0914 22.22 35.6717C21.3367 35.2183 20.9167 34.23 20.9167 33.2367V27.99ZM13 13.8233C13 13.6023 13.0878 13.3904 13.2441 13.2341C13.4004 13.0778 13.6123 12.99 13.8333 12.99C14.0543 12.99 14.2663 13.0778 14.4226 13.2341C14.5789 13.3904 14.6667 13.6023 14.6667 13.8233C14.6667 14.0443 14.5789 14.2563 14.4226 14.4126C14.2663 14.5689 14.0543 14.6567 13.8333 14.6567C13.6123 14.6567 13.4004 14.5689 13.2441 14.4126C13.0878 14.2563 13 14.0443 13 13.8233ZM13.8333 24.6567C13.6123 24.6567 13.4004 24.7445 13.2441 24.9007C13.0878 25.057 13 25.269 13 25.49C13 25.711 13.0878 25.923 13.2441 26.0793C13.4004 26.2355 13.6123 26.3233 13.8333 26.3233C14.0543 26.3233 14.2663 26.2355 14.4226 26.0793C14.5789 25.923 14.6667 25.711 14.6667 25.49C14.6667 25.269 14.5789 25.057 14.4226 24.9007C14.2663 24.7445 14.0543 24.6567 13.8333 24.6567ZM26.3333 17.1567C26.3333 17.3777 26.4211 17.5896 26.5774 17.7459C26.7337 17.9022 26.9457 17.99 27.1667 17.99C27.3877 17.99 27.5996 17.9022 27.7559 17.7459C27.9122 17.5896 28 17.3777 28 17.1567C28 16.9357 27.9122 16.7237 27.7559 16.5674C27.5996 16.4111 27.3877 16.3233 27.1667 16.3233C26.9457 16.3233 26.7337 16.4111 26.5774 16.5674C26.4211 16.7237 26.3333 16.9357 26.3333 17.1567Z" fill="#181818"/>
</svg>
